<svg width="1928" height="489" viewBox="0 0 1928 489" fill="none" xmlns="http://www.w3.org/2000/svg">
<rect width="1927.45" height="488.281" fill="white"/>
<path d="M587.08 208.28C587.08 217.704 585.332 225.684 581.836 232.22C578.34 238.604 573.628 243.772 567.7 247.724C561.772 251.676 554.932 254.564 547.18 256.388C539.428 258.212 531.372 259.124 523.012 259.124H503.632V320H464.644V158.576H523.924C532.74 158.576 540.948 159.488 548.548 161.312C556.3 162.984 562.988 165.796 568.612 169.748C574.388 173.548 578.872 178.64 582.064 185.024C585.408 191.256 587.08 199.008 587.08 208.28ZM548.092 208.508C548.092 204.708 547.332 201.592 545.812 199.16C544.292 196.728 542.24 194.828 539.656 193.46C537.072 192.092 534.108 191.18 530.764 190.724C527.572 190.268 524.228 190.04 520.732 190.04H503.632V228.116H520.048C523.696 228.116 527.192 227.812 530.536 227.204C533.88 226.596 536.844 225.532 539.428 224.012C542.164 222.492 544.292 220.516 545.812 218.084C547.332 215.5 548.092 212.308 548.092 208.508ZM662.926 337.1C660.646 343.028 658.062 348.272 655.174 352.832C652.438 357.544 649.094 361.496 645.142 364.688C641.342 368.032 636.782 370.54 631.462 372.212C626.294 373.884 620.138 374.72 612.994 374.72C609.498 374.72 605.85 374.492 602.05 374.036C598.402 373.58 595.21 372.972 592.474 372.212L596.578 340.748C598.402 341.356 600.378 341.812 602.506 342.116C604.786 342.572 606.838 342.8 608.662 342.8C614.438 342.8 618.618 341.432 621.202 338.696C623.786 336.112 625.99 332.388 627.814 327.524L631.462 318.176L584.038 206.456H625.534L650.842 279.416H651.526L674.098 206.456H713.77L662.926 337.1ZM768.805 234.5V277.82C768.805 283.14 769.793 287.168 771.769 289.904C773.897 292.488 777.621 293.78 782.941 293.78C784.765 293.78 786.665 293.628 788.641 293.324C790.769 293.02 792.517 292.564 793.885 291.956L794.341 319.316C791.757 320.228 788.489 320.988 784.537 321.596C780.585 322.356 776.633 322.736 772.681 322.736C765.081 322.736 758.697 321.824 753.529 320C748.361 318.024 744.181 315.288 740.989 311.792C737.949 308.144 735.745 303.888 734.377 299.024C733.009 294.008 732.325 288.46 732.325 282.38V234.5H714.085V206.456H732.097V176.588H768.805V206.456H795.481V234.5H768.805ZM887.837 320V258.44C887.837 255.248 887.609 252.208 887.153 249.32C886.697 246.432 885.785 243.924 884.417 241.796C883.201 239.516 881.529 237.768 879.401 236.552C877.273 235.184 874.537 234.5 871.193 234.5C864.657 234.5 859.641 236.856 856.145 241.568C852.649 246.128 850.901 251.828 850.901 258.668V320H813.509V147.632H850.901V220.82H851.357C853.941 216.26 858.045 212.232 863.669 208.736C869.293 205.088 876.057 203.264 883.961 203.264C891.713 203.264 898.173 204.632 903.341 207.368C908.661 210.104 912.917 213.676 916.109 218.084C919.453 222.34 921.809 227.28 923.177 232.904C924.697 238.528 925.457 244.152 925.457 249.776V320H887.837ZM1074.16 262.772C1074.16 272.044 1072.48 280.48 1069.14 288.08C1065.8 295.528 1061.24 301.912 1055.46 307.232C1049.68 312.4 1043 316.428 1035.4 319.316C1027.8 322.204 1019.66 323.648 1011 323.648C1002.49 323.648 994.356 322.204 986.604 319.316C979.004 316.428 972.316 312.4 966.54 307.232C960.916 301.912 956.432 295.528 953.088 288.08C949.744 280.48 948.072 272.044 948.072 262.772C948.072 253.5 949.744 245.14 953.088 237.692C956.432 230.244 960.916 223.936 966.54 218.768C972.316 213.6 979.004 209.648 986.604 206.912C994.356 204.176 1002.49 202.808 1011 202.808C1019.66 202.808 1027.8 204.176 1035.4 206.912C1043 209.648 1049.68 213.6 1055.46 218.768C1061.24 223.936 1065.8 230.244 1069.14 237.692C1072.48 245.14 1074.16 253.5 1074.16 262.772ZM1038.13 262.772C1038.13 259.124 1037.52 255.552 1036.31 252.056C1035.09 248.56 1033.34 245.52 1031.06 242.936C1028.78 240.2 1025.97 237.996 1022.63 236.324C1019.28 234.652 1015.41 233.816 1011 233.816C1006.59 233.816 1002.72 234.652 999.372 236.324C996.028 237.996 993.216 240.2 990.936 242.936C988.808 245.52 987.136 248.56 985.92 252.056C984.856 255.552 984.324 259.124 984.324 262.772C984.324 266.42 984.856 269.992 985.92 273.488C987.136 276.984 988.884 280.176 991.164 283.064C993.444 285.8 996.256 288.004 999.6 289.676C1002.94 291.348 1006.82 292.184 1011.23 292.184C1015.64 292.184 1019.51 291.348 1022.86 289.676C1026.2 288.004 1029.01 285.8 1031.29 283.064C1033.57 280.176 1035.24 276.984 1036.31 273.488C1037.52 269.992 1038.13 266.42 1038.13 262.772ZM1172.39 320V257.984C1172.39 254.792 1172.08 251.752 1171.47 248.864C1171.02 245.976 1170.18 243.468 1168.97 241.34C1167.75 239.06 1166 237.312 1163.72 236.096C1161.59 234.728 1158.86 234.044 1155.51 234.044C1152.17 234.044 1149.21 234.728 1146.62 236.096C1144.19 237.312 1142.14 239.06 1140.47 241.34C1138.79 243.62 1137.5 246.28 1136.59 249.32C1135.83 252.208 1135.45 255.248 1135.45 258.44V320H1097.83V206.456H1134.08V222.188H1134.54C1135.91 219.756 1137.65 217.4 1139.78 215.12C1142.06 212.688 1144.65 210.636 1147.53 208.964C1150.57 207.292 1153.84 205.924 1157.34 204.86C1160.83 203.796 1164.56 203.264 1168.51 203.264C1176.11 203.264 1182.57 204.632 1187.89 207.368C1193.21 210.104 1197.47 213.676 1200.66 218.084C1204 222.34 1206.36 227.28 1207.73 232.904C1209.25 238.528 1210.01 244.152 1210.01 249.776V320H1172.39ZM1423.23 273.032C1423.23 281.848 1421.49 289.296 1417.99 295.376C1414.49 301.304 1409.86 306.092 1404.08 309.74C1398.31 313.388 1391.69 316.048 1384.25 317.72C1376.95 319.24 1369.43 320 1361.67 320H1297.38V158.576H1361.67C1367.91 158.576 1374.29 159.26 1380.83 160.628C1387.36 161.844 1393.29 164.048 1398.61 167.24C1403.93 170.28 1408.26 174.46 1411.61 179.78C1414.95 185.1 1416.62 191.864 1416.62 200.072C1416.62 209.04 1414.19 216.488 1409.33 222.416C1404.46 228.192 1398.08 232.372 1390.17 234.956V235.412C1394.73 236.172 1398.99 237.616 1402.94 239.744C1407.05 241.72 1410.54 244.304 1413.43 247.496C1416.47 250.688 1418.83 254.412 1420.5 258.668C1422.32 262.924 1423.23 267.712 1423.23 273.032ZM1379 205.316C1379 199.844 1376.87 195.892 1372.62 193.46C1368.51 190.876 1362.36 189.584 1354.15 189.584H1335V222.872H1355.97C1363.27 222.872 1368.89 221.428 1372.85 218.54C1376.95 215.5 1379 211.092 1379 205.316ZM1384.25 269.384C1384.25 262.696 1381.74 258.06 1376.72 255.476C1371.71 252.892 1365.02 251.6 1356.66 251.6H1335V288.536H1356.89C1359.93 288.536 1363.04 288.308 1366.23 287.852C1369.58 287.244 1372.54 286.256 1375.13 284.888C1377.86 283.52 1380.07 281.62 1381.74 279.188C1383.41 276.604 1384.25 273.336 1384.25 269.384ZM1567.34 262.772C1567.34 272.044 1565.67 280.48 1562.32 288.08C1558.98 295.528 1554.42 301.912 1548.64 307.232C1542.87 312.4 1536.18 316.428 1528.58 319.316C1520.98 322.204 1512.85 323.648 1504.18 323.648C1495.67 323.648 1487.54 322.204 1479.79 319.316C1472.19 316.428 1465.5 312.4 1459.72 307.232C1454.1 301.912 1449.62 295.528 1446.27 288.08C1442.93 280.48 1441.26 272.044 1441.26 262.772C1441.26 253.5 1442.93 245.14 1446.27 237.692C1449.62 230.244 1454.1 223.936 1459.72 218.768C1465.5 213.6 1472.19 209.648 1479.79 206.912C1487.54 204.176 1495.67 202.808 1504.18 202.808C1512.85 202.808 1520.98 204.176 1528.58 206.912C1536.18 209.648 1542.87 213.6 1548.64 218.768C1554.42 223.936 1558.98 230.244 1562.32 237.692C1565.67 245.14 1567.34 253.5 1567.34 262.772ZM1531.32 262.772C1531.32 259.124 1530.71 255.552 1529.49 252.056C1528.28 248.56 1526.53 245.52 1524.25 242.936C1521.97 240.2 1519.16 237.996 1515.81 236.324C1512.47 234.652 1508.59 233.816 1504.18 233.816C1499.78 233.816 1495.9 234.652 1492.56 236.324C1489.21 237.996 1486.4 240.2 1484.12 242.936C1481.99 245.52 1480.32 248.56 1479.1 252.056C1478.04 255.552 1477.51 259.124 1477.51 262.772C1477.51 266.42 1478.04 269.992 1479.1 273.488C1480.32 276.984 1482.07 280.176 1484.35 283.064C1486.63 285.8 1489.44 288.004 1492.78 289.676C1496.13 291.348 1500 292.184 1504.41 292.184C1508.82 292.184 1512.7 291.348 1516.04 289.676C1519.38 288.004 1522.2 285.8 1524.48 283.064C1526.76 280.176 1528.43 276.984 1529.49 273.488C1530.71 269.992 1531.32 266.42 1531.32 262.772ZM1657.82 239.972C1654.78 237.084 1651.21 234.652 1647.1 232.676C1643 230.7 1638.67 229.712 1634.11 229.712C1630.61 229.712 1627.34 230.396 1624.3 231.764C1621.41 233.132 1619.97 235.488 1619.97 238.832C1619.97 242.024 1621.57 244.304 1624.76 245.672C1628.1 247.04 1633.42 248.56 1640.72 250.232C1644.97 251.144 1649.23 252.436 1653.49 254.108C1657.89 255.78 1661.85 257.984 1665.34 260.72C1668.84 263.456 1671.65 266.8 1673.78 270.752C1675.91 274.704 1676.97 279.416 1676.97 284.888C1676.97 292.032 1675.53 298.112 1672.64 303.128C1669.75 307.992 1665.95 311.944 1661.24 314.984C1656.68 318.024 1651.51 320.228 1645.73 321.596C1639.96 322.964 1634.18 323.648 1628.41 323.648C1619.13 323.648 1610.01 322.204 1601.05 319.316C1592.23 316.276 1584.86 311.868 1578.93 306.092L1599.91 283.976C1603.25 287.624 1607.35 290.664 1612.22 293.096C1617.08 295.528 1622.25 296.744 1627.72 296.744C1630.76 296.744 1633.73 296.06 1636.61 294.692C1639.65 293.172 1641.17 290.588 1641.17 286.94C1641.17 283.444 1639.35 280.86 1635.7 279.188C1632.05 277.516 1626.35 275.768 1618.6 273.944C1614.65 273.032 1610.7 271.816 1606.75 270.296C1602.79 268.776 1599.22 266.724 1596.03 264.14C1592.99 261.556 1590.48 258.364 1588.51 254.564C1586.53 250.764 1585.54 246.204 1585.54 240.884C1585.54 234.044 1586.99 228.268 1589.87 223.556C1592.76 218.692 1596.49 214.74 1601.05 211.7C1605.61 208.66 1610.62 206.456 1616.09 205.088C1621.72 203.568 1627.27 202.808 1632.74 202.808C1641.25 202.808 1649.53 204.176 1657.59 206.912C1665.8 209.496 1672.71 213.448 1678.34 218.768L1657.82 239.972ZM1765.36 239.972C1762.32 237.084 1758.75 234.652 1754.64 232.676C1750.54 230.7 1746.21 229.712 1741.65 229.712C1738.15 229.712 1734.88 230.396 1731.84 231.764C1728.96 233.132 1727.51 235.488 1727.51 238.832C1727.51 242.024 1729.11 244.304 1732.3 245.672C1735.64 247.04 1740.96 248.56 1748.26 250.232C1752.52 251.144 1756.77 252.436 1761.03 254.108C1765.44 255.78 1769.39 257.984 1772.88 260.72C1776.38 263.456 1779.19 266.8 1781.32 270.752C1783.45 274.704 1784.51 279.416 1784.51 284.888C1784.51 292.032 1783.07 298.112 1780.18 303.128C1777.29 307.992 1773.49 311.944 1768.78 314.984C1764.22 318.024 1759.05 320.228 1753.28 321.596C1747.5 322.964 1741.72 323.648 1735.95 323.648C1726.68 323.648 1717.56 322.204 1708.59 319.316C1699.77 316.276 1692.4 311.868 1686.47 306.092L1707.45 283.976C1710.79 287.624 1714.9 290.664 1719.76 293.096C1724.62 295.528 1729.79 296.744 1735.26 296.744C1738.3 296.744 1741.27 296.06 1744.16 294.692C1747.2 293.172 1748.72 290.588 1748.72 286.94C1748.72 283.444 1746.89 280.86 1743.24 279.188C1739.6 277.516 1733.9 275.768 1726.14 273.944C1722.19 273.032 1718.24 271.816 1714.29 270.296C1710.34 268.776 1706.76 266.724 1703.57 264.14C1700.53 261.556 1698.02 258.364 1696.05 254.564C1694.07 250.764 1693.08 246.204 1693.08 240.884C1693.08 234.044 1694.53 228.268 1697.42 223.556C1700.3 218.692 1704.03 214.74 1708.59 211.7C1713.15 208.66 1718.16 206.456 1723.64 205.088C1729.26 203.568 1734.81 202.808 1740.28 202.808C1748.79 202.808 1757.08 204.176 1765.13 206.912C1773.34 209.496 1780.26 213.448 1785.88 218.768L1765.36 239.972Z" fill="#1D1D1B"/>
<path d="M205.288 427H186.625L205.288 284.667H125.785C125.785 284.667 194.463 153.313 242.613 61H261.276L242.613 203.333H322.489L205.288 427Z" fill="#1D1D1B"/>
</svg>
